<svg xmlns="http://www.w3.org/2000/svg" xmlns:xlink="http://www.w3.org/1999/xlink" width="200" height="200" class="icon" p-id="31307" t="1559450565546" version="1.1" viewBox="0 0 1024 1024"><defs><style type="text/css"/></defs><path d="M1023.488 489.984C1011.2 207.36 772.096-11.776 489.984 0.512S-11.776 251.904 0.512 534.016c12.288 282.624 250.88 501.76 533.504 489.472 282.624-12.288 501.76-251.392 489.472-533.504z m-491.52 479.744c-252.928 10.752-466.432-184.832-477.696-437.76s184.832-466.432 437.76-477.696c252.416-10.752 466.432 184.832 477.696 437.76 10.752 252.416-184.832 466.432-437.76 477.696z" p-id="31308"/><path d="M680.96 295.936l-237.568 406.528h244.736v72.704H349.184v-66.048L588.8 302.592H355.84V229.888H680.96v66.048z" p-id="31309"/></svg>